# xmcd CD database file
#
# Track frame offsets:
#	150
#	11827
#	25000
#	41515
#	54410
#	64623
#	76323
#	88377
#	99613
#	114190
#	125635
#	137123
#	146070
#	157660
#	170685
#	183170
#	194858
#	212470
#
# Disc length: 3003 seconds
#
# Revision: 1
# Processed by: cddbd v1.5.2PL0 Copyright (c) Steve Scherf et al.
# Submitted via: CDex 1.51
#
DISCID=f70bb912
DTITLE=Freddy Fender - The Ultimate Collection
DYEAR=1900
DGENRE=
TTITLE0=Before the next teardrop falls (1974)
TTITLE1=Wasted days and wasted nights (1974)
TTITLE2=Secret love (1975)
TTITLE3=You'll lose a good thing (1976)
TTITLE4=The rains came (1977)
TTITLE5=Living it down (1976)
TTITLE6=If you don't love me
TTITLE7=Mathilda (1975)
TTITLE8=Since I met you baby (1977)
TTITLE9=If you're ever in Texas (1976)
TTITLE10=Walking piece of heaven (1979)
TTITLE11=Breaking up is hard to do (1978)
TTITLE12=She's about a mover (1978)
TTITLE13=Talk to me (1978)
TTITLE14=Tell it like it is (1978)
TTITLE15=I'm leaving it all up to you (1978)
TTITLE16=I really don't want to know (1979)
TTITLE17=Cajun stomp
EXTD=
EXTT0=
EXTT1=
EXTT2=
EXTT3=
EXTT4=
EXTT5=
EXTT6=
EXTT7=
EXTT8=
EXTT9=
EXTT10=
EXTT11=
EXTT12=
EXTT13=
EXTT14=
EXTT15=
EXTT16=
EXTT17=
PLAYORDER=
